<?xml version="1.0" standalone="no"?>
<!DOCTYPE svg PUBLIC "-//W3C//DTD SVG 20010904//EN"
 "http://www.w3.org/TR/2001/REC-SVG-20010904/DTD/svg10.dtd">
<svg version="1.0" xmlns="http://www.w3.org/2000/svg"
 width="700.000000pt" height="700.000000pt" viewBox="0 0 700.000000 700.000000"
 preserveAspectRatio="xMidYMid meet">
<metadata>
Created by potrace 1.14, written by Peter Selinger 2001-2017
</metadata>
<g transform="translate(0.000000,700.000000) scale(0.100000,-0.100000)"
fill="#000000" stroke="none">
<path d="M4515 6166 c-146 -29 -275 -86 -384 -171 -100 -78 -3364 -3355 -3405
-3418 -49 -76 -91 -168 -118 -264 -23 -77 -23 -85 -23 -673 l0 -595 26 -67
c72 -186 197 -308 378 -370 66 -23 67 -23 656 -23 586 0 591 0 670 23 107 31
226 89 305 150 103 79 3370 3357 3414 3425 52 80 91 170 118 269 31 115 31
316 -1 433 -27 100 -78 210 -135 289 -55 76 -793 811 -859 855 -72 49 -183 98
-272 121 -103 27 -275 34 -370 16z m280 -611 c38 -18 134 -108 397 -372 388
-389 392 -394 392 -518 1 -118 -10 -133 -335 -460 l-289 -290 -522 523 -523
522 290 288 c282 281 321 313 400 333 48 13 136 1 190 -26z m-770 -1535 l520
-520 -1140 -1139 c-918 -916 -1150 -1143 -1190 -1162 l-50 -24 -498 -3 -498
-3 3 498 3 498 24 50 c19 40 246 272 1160 1188 625 625 1138 1137 1141 1137 3
0 239 -234 525 -520z"/>
</g>
</svg>
